<?xml version="1.0" encoding="UTF-8" standalone="no"?>
<!-- Generator: Adobe Illustrator 21.1.0, SVG Export Plug-In . SVG Version: 6.00 Build 0)  -->

<svg
   xmlns:dc="http://purl.org/dc/elements/1.1/"
   xmlns:cc="http://creativecommons.org/ns#"
   xmlns:rdf="http://www.w3.org/1999/02/22-rdf-syntax-ns#"
   xmlns:svg="http://www.w3.org/2000/svg"
   xmlns="http://www.w3.org/2000/svg"
   xmlns:sodipodi="http://sodipodi.sourceforge.net/DTD/sodipodi-0.dtd"
   xmlns:inkscape="http://www.inkscape.org/namespaces/inkscape"
   version="1.1"
   id="Layer_1"
   x="0px"
   y="0px"
   viewBox="0 0 15 16"
   style="enable-background:new 0 0 15 16;"
   xml:space="preserve"
   sodipodi:docname="login.svg"
   inkscape:version="0.92.4 (5da689c313, 2019-01-14)"><metadata
   id="metadata26"><rdf:RDF><cc:Work
       rdf:about=""><dc:format>image/svg+xml</dc:format><dc:type
         rdf:resource="http://purl.org/dc/dcmitype/StillImage" /></cc:Work></rdf:RDF></metadata><defs
   id="defs24" /><sodipodi:namedview
   pagecolor="#ffffff"
   bordercolor="#666666"
   borderopacity="1"
   objecttolerance="10"
   gridtolerance="10"
   guidetolerance="10"
   inkscape:pageopacity="0"
   inkscape:pageshadow="2"
   inkscape:window-width="1920"
   inkscape:window-height="1017"
   id="namedview22"
   showgrid="false"
   inkscape:zoom="53"
   inkscape:cx="4.4339623"
   inkscape:cy="8"
   inkscape:window-x="-8"
   inkscape:window-y="733"
   inkscape:window-maximized="1"
   inkscape:current-layer="Layer_1" />
<path
   d="M7.5,9c2.2,0,4-1.8,4-4c0-2.2-1.8-4-4-4s-4,1.8-4,4C3.5,7.2,5.3,9,7.5,9z M7.5,2c1.7,0,3,1.3,3,3s-1.3,3-3,3s-3-1.3-3-3  S5.8,2,7.5,2z M7.5,10c-3,0-5.6,2-6.3,4.9l1,0.3C2.8,12.7,5,11,7.5,11c2.5,0,4.7,1.7,5.3,4.1l1-0.3C13.1,12,10.5,10,7.5,10z"
   id="path19"
   style="fill:#bfbfbf;fill-opacity:1" />
</svg>